<svg xmlns="http://www.w3.org/2000/svg" viewBox="0 0 512 512">
  <rect x="40" y="40" width="432" height="432" rx="96" fill="#3B82F6"/>

  <g transform="translate(256, 256) scale(0.92) translate(-205, -235)">
    <path d="M105 90 L240 90 L305 155 L305 380 L105 380 Z" fill="#1E40AF" opacity="0.18" transform="translate(3,3)"/>
    <path d="M105 90 L240 90 L305 155 L305 380 L105 380 Z" fill="#FFFFFF"/>
    <path d="M240 90 L240 155 L305 155 Z" fill="#E2E8F0"/>
    <rect x="130" y="190" width="95" height="11" rx="3" fill="#CBD5E1"/>
    <rect x="130" y="214" width="135" height="11" rx="3" fill="#CBD5E1"/>
    <rect x="130" y="238" width="80" height="11" rx="3" fill="#CBD5E1"/>
    <rect x="130" y="262" width="115" height="11" rx="3" fill="#CBD5E1"/>
    <rect x="130" y="286" width="65" height="11" rx="3" fill="#CBD5E1"/>
  </g>

  <g>
    <polygon points="305,335 333,307 372,346 344,374" fill="#1E3A5F"/>
    <circle cx="358" cy="360" r="17" fill="#1E3A5F"/>
    <circle cx="272" cy="272" r="64" fill="#1E3A5F"/>
    <circle cx="272" cy="272" r="53" fill="#60A5FA"/>
    <circle cx="272" cy="272" r="44" fill="#DBEAFE"/>
    <ellipse cx="254" cy="254" rx="15" ry="9" fill="#FFFFFF" opacity="0.8" transform="rotate(-45 254 254)"/>
  </g>
</svg>
